<?xml version="1.0" standalone="no"?>
<!DOCTYPE svg PUBLIC "-//W3C//DTD SVG 20010904//EN"
 "http://www.w3.org/TR/2001/REC-SVG-20010904/DTD/svg10.dtd">
<svg version="1.0" xmlns="http://www.w3.org/2000/svg"
 width="700.000000pt" height="700.000000pt" viewBox="0 0 700.000000 700.000000"
 preserveAspectRatio="xMidYMid meet">
<metadata>
Created by potrace 1.14, written by Peter Selinger 2001-2017
</metadata>
<g transform="translate(0.000000,700.000000) scale(0.100000,-0.100000)"
fill="#000000" stroke="none">
<path d="M2061 6438 c-12 -4 -27 -36 -45 -95 -15 -48 -58 -185 -96 -303 -38
-118 -128 -402 -200 -630 -72 -228 -156 -494 -187 -590 -30 -96 -71 -224 -90
-285 -19 -60 -41 -128 -48 -150 -7 -22 -38 -119 -69 -215 -48 -154 -114 -363
-231 -730 -18 -58 -56 -179 -85 -270 -28 -91 -71 -226 -95 -300 -24 -74 -68
-214 -99 -310 -69 -219 -236 -749 -322 -1020 -269 -847 -286 -899 -284 -902 1
-2 -6 -22 -15 -46 -10 -24 -15 -46 -11 -49 8 -8 2917 -10 2922 -2 2 3 60 185
129 405 70 219 128 400 130 402 6 6 156 5 161 -1 6 -6 59 -171 216 -671 l44
-140 1517 0 c1031 -1 1517 2 1517 9 0 11 -138 426 -1200 3625 -762 2296 -752
2264 -756 2269 -6 7 -2785 6 -2803 -1z m2729 -448 c42 -129 285 -860 539
-1625 254 -765 479 -1446 502 -1515 22 -69 45 -134 49 -145 5 -11 150 -447
324 -970 173 -522 318 -958 321 -967 7 -17 -59 -18 -1287 -18 l-1294 0 -28 88
c-15 48 -51 164 -81 257 -29 94 -75 238 -101 321 l-48 151 -240 -1 -239 -1
-23 -70 c-12 -38 -50 -158 -84 -265 -33 -107 -65 -206 -70 -220 -5 -14 -25
-78 -45 -142 l-36 -118 -1241 0 c-988 0 -1239 3 -1235 13 2 6 19 59 37 117 17
58 51 166 75 240 40 123 285 897 422 1330 30 96 62 195 70 220 14 42 31 95
102 323 16 50 59 187 96 302 37 116 82 257 100 315 107 340 163 517 220 695
35 110 89 281 120 380 31 99 63 198 70 220 15 42 108 335 195 615 56 178 96
303 160 500 22 69 40 128 40 133 0 4 6 23 14 41 l14 33 1252 -1 1252 -1 78
-235z"/>
<path d="M2570 5798 c-5 -13 -32 -97 -60 -188 -28 -91 -55 -176 -60 -190 -11
-31 -83 -261 -86 -275 -1 -5 -25 -80 -52 -165 -28 -85 -74 -229 -102 -320 -29
-91 -64 -203 -80 -250 -15 -47 -32 -101 -38 -120 -5 -19 -53 -172 -107 -340
-90 -282 -176 -555 -245 -775 -27 -85 -79 -251 -225 -710 -114 -360 -192 -607
-250 -790 -31 -99 -65 -205 -75 -235 -52 -158 -91 -292 -86 -297 6 -6 1315 -7
1321 -2 3 4 104 328 221 706 l59 193 743 0 c408 0 742 -2 742 -5 0 -3 21 -72
46 -153 25 -81 54 -174 64 -207 17 -57 79 -257 137 -445 15 -47 28 -87 29 -89
2 -2 324 -3 716 -3 l713 0 -2 28 c-1 16 -7 38 -12 49 -5 11 -123 364 -261 785
-250 760 -527 1598 -705 2135 -51 154 -197 596 -325 983 l-231 702 -890 0
-889 0 -10 -22z m850 -921 c0 -23 167 -645 250 -932 54 -190 74 -258 96 -340
8 -27 23 -79 34 -115 26 -85 77 -258 100 -340 10 -36 22 -73 25 -82 7 -17 -21
-18 -500 -18 -469 0 -507 1 -501 17 25 63 294 1067 321 1193 1 8 8 33 13 55 6
22 13 51 16 65 2 14 15 70 29 125 29 116 56 231 62 266 18 96 31 132 45 124 5
-3 10 -12 10 -18z"/>
</g>
</svg>
